IKResults
version=1
nRows=7
nColumns=67
inDegrees=yes

Units are S.I. units (second, meters, Newtons, ...)
Angles are in degrees.

endheader
time	pelvis_tilt	pelvis_list	pelvis_rotation	pelvis_tx	pelvis_ty	pelvis_tz	hip_flexion_r	hip_adduction_r	hip_rotation_r	knee_angle_r	knee_rot_r	knee_adduc_r	ankle_angle_r	ankle_rot_r	ankle_add_r	subtalar_angle_r	mtp_angle_r	mtp_rot_r	mtp_add_r	hip_flexion_l	hip_adduction_l	hip_rotation_l	knee_angle_l	knee_rot_l	knee_adduc_l	ankle_angle_l	ankle_rot_l	ankle_add_l	subtalar_angle_l	mtp_angle_l	mtp_rot_l	mtp_add_l	lumbar_extension	lumbar_bending	lumbar_rotation	neck_flexion	neck_lateral_bending	neck_rotation	arm_flex_r	arm_add_r	arm_rot_r	elbow_flex_r	elbow_rot_r	elbow_add_r	pro_sup_r	wrist_flex_r	wrist_adduc_r	wrist_rot_r	wrist_dev_r	hand_finger_flex_r	hand_finger_adduc_r	hand_finger_rot_r	arm_flex_l	arm_add_l	arm_rot_l	elbow_flex_l	elbow_rot_l	elbow_add_l	pro_sup_l	wrist_flex_l	wrist_adduc_l	wrist_rot_l	wrist_dev_l	hand_finger_flex_l	hand_finger_adduc_l	hand_finger_rot_l
      4.49500000	     -9.00811232	      0.20110381	      2.09456625	     -1.06374485	      0.59891557	      0.82347799	     35.33410539	    -10.31483182	     -3.25769769	    -78.38579137	     -5.00000000	      5.00000000	     17.66766894	      0.59352286	      3.50148129	    -33.28239344	     -4.74507188	     -2.00000000	      2.00000000	     37.55646750	     -2.24538753	     13.55701855	    -50.94995856	      5.00000000	     -0.11100920	     20.53040528	      0.09795215	      4.34056381	    -24.07796477	      5.96947193	      2.00000000	     -1.92917372	    -10.08239938	     -7.18319275	     17.38855225	      0.00000000	      0.00000000	      0.00000000	      0.00000000	      0.00000000	      0.00000000	      0.00000000	      0.00000000	      0.00000000	     -0.00042092	      0.00000000	      0.00000000	      0.00000000	      0.00000000	      0.00000000	      0.00000000	      0.00000000	      0.00000000	      0.00000000	      0.00000000	      0.00000000	      0.00000000	      0.00000000	      0.00000000	      0.00000000	      0.00000000	      0.00000000	      0.00000000	      0.00000000	      0.00000000	      0.00000000
      4.50000000	     -8.98988645	      0.02851848	      1.87502506	     -1.06196215	      0.60014031	      0.82419849	     36.21084127	    -10.40244316	     -3.64871750	    -78.94571732	     -5.00000000	      5.00000000	     17.72466989	      0.58264711	      3.46528486	    -33.31831561	     -4.73078988	     -2.00000000	      2.00000000	     37.05794366	     -2.43082316	     13.76606902	    -50.53125330	      5.00000000	      0.03932603	     20.50973538	      0.15057974	      4.32932039	    -24.08311838	      5.95555943	      2.00000000	     -1.92622247	    -10.29983906	     -6.97567814	     17.42961786	      0.00000000	      0.00000000	      0.00000000	      0.00000000	      0.00000000	      0.00000000	      0.00000000	      0.00000000	      0.00000000	     -0.00042092	      0.00000000	      0.00000000	      0.00000000	      0.00000000	      0.00000000	      0.00000000	      0.00000000	      0.00000000	      0.00000000	      0.00000000	      0.00000000	      0.00000000	      0.00000000	      0.00000000	      0.00000000	      0.00000000	      0.00000000	      0.00000000	      0.00000000	      0.00000000	      0.00000000
      4.50500000	     -8.96955436	     -0.14840049	      1.65789235	     -1.06024753	      0.60132559	      0.82497314	     37.10687560	    -10.47825078	     -4.02923446	    -79.48467400	     -5.00000000	      5.00000000	     17.78889498	      0.58515638	      3.42515979	    -33.35043201	     -4.71418696	     -2.00000000	      2.00000000	     36.58053357	     -2.62830728	     13.96751935	    -50.13341702	      5.00000000	      0.17581108	     20.48479392	      0.21279763	      4.31737654	    -24.09143369	      5.94026618	      2.00000000	     -1.92297622	    -10.53286045	     -6.75781565	     17.47314868	      0.00000000	      0.00000000	      0.00000000	      0.00000000	      0.00000000	      0.00000000	      0.00000000	      0.00000000	      0.00000000	     -0.00042092	      0.00000000	      0.00000000	      0.00000000	      0.00000000	      0.00000000	      0.00000000	      0.00000000	      0.00000000	      0.00000000	      0.00000000	      0.00000000	      0.00000000	      0.00000000	      0.00000000	      0.00000000	      0.00000000	      0.00000000	      0.00000000	      0.00000000	      0.00000000	      0.00000000
      4.51000000	     -8.94501448	     -0.32447133	      1.45054219	     -1.05852235	      0.60247326	      0.82577767	     37.99966520	    -10.56312422	     -4.38269718	    -79.98575454	     -5.00000000	      5.00000000	     17.85659785	      0.59825942	      3.38352203	    -33.37842575	     -4.69645591	     -2.00000000	      2.00000000	     36.11543642	     -2.84080257	     14.15622802	    -49.76879960	      5.00000000	      0.29501101	     20.45643081	      0.27766577	      4.30507305	    -24.10032610	      5.92476124	      2.00000000	     -1.91961951	    -10.75999931	     -6.53041184	     17.50888669	      0.00000000	      0.00000000	      0.00000000	      0.00000000	      0.00000000	      0.00000000	      0.00000000	      0.00000000	      0.00000000	     -0.00042092	      0.00000000	      0.00000000	      0.00000000	      0.00000000	      0.00000000	      0.00000000	      0.00000000	      0.00000000	      0.00000000	      0.00000000	      0.00000000	      0.00000000	      0.00000000	      0.00000000	      0.00000000	      0.00000000	      0.00000000	      0.00000000	      0.00000000	      0.00000000	      0.00000000
      4.51500000	     -8.92075520	     -0.50802265	      1.24677710	     -1.05680717	      0.60352217	      0.82655285	     38.90869165	    -10.66049847	     -4.71083024	    -80.47179080	     -5.00000000	      5.00000000	     17.93301694	      0.62011077	      3.33711983	    -33.40600684	     -4.67643331	     -2.00000000	      2.00000000	     35.66885363	     -3.07991223	     14.34357667	    -49.41075378	      5.00000000	      0.40093044	     20.42322162	      0.34978141	      4.29157935	    -24.11042727	      5.90792237	      2.00000000	     -1.91594679	    -10.99339675	     -6.28571133	     17.54096774	      0.00000000	      0.00000000	      0.00000000	      0.00000000	      0.00000000	      0.00000000	      0.00000000	      0.00000000	      0.00000000	     -0.00042092	      0.00000000	      0.00000000	      0.00000000	      0.00000000	      0.00000000	      0.00000000	      0.00000000	      0.00000000	      0.00000000	      0.00000000	      0.00000000	      0.00000000	      0.00000000	      0.00000000	      0.00000000	      0.00000000	      0.00000000	      0.00000000	      0.00000000	      0.00000000	      0.00000000
      4.52000000	     -9.79239143	     -1.47525894	      0.53538878	     -1.05523039	      0.60357663	      0.82888401	     40.78294383	     -9.47823224	     -5.08800746	    -80.74805947	     -5.00000000	      5.00000000	     18.86334458	      1.14296136	      2.65214761	    -33.59758462	     -4.36263833	     -2.00000000	      2.00000000	     36.39145302	     -4.55307484	     15.37381312	    -49.45309396	      5.00000000	     -0.32831009	     19.93464413	      1.65849522	      4.10053955	    -24.33253219	      5.61687513	      2.00000000	     -1.86624874	    -10.05101189	     -5.39170762	     18.27313589	      0.00000000	      0.00000000	      0.00000000	      0.00000000	      0.00000000	      0.00000000	      0.00000000	      0.00000000	      0.00000000	     -0.00042092	      0.00000000	      0.00000000	      0.00000000	      0.00000000	      0.00000000	      0.00000000	      0.00000000	      0.00000000	      0.00000000	      0.00000000	      0.00000000	      0.00000000	      0.00000000	      0.00000000	      0.00000000	      0.00000000	      0.00000000	      0.00000000	      0.00000000	      0.00000000	      0.00000000
      4.52500000	     -9.75991175	     -1.58190150	      0.38423655	     -1.05337237	      0.60454841	      0.82951733	     41.64606669	     -9.72827016	     -5.39111861	    -81.12234852	     -5.00000000	      5.00000000	     18.86834275	      1.11703821	      2.63902966	    -33.61558325	     -4.35805238	     -2.00000000	      2.00000000	     35.93392989	     -4.70650978	     15.50945792	    -49.12276033	      5.00000000	     -0.26872592	     19.92883247	      1.64351517	      4.09521876	    -24.31082312	      5.61238175	      2.00000000	     -1.86563718	    -10.26844083	     -5.16583655	     18.20679717	      0.00000000	      0.00000000	      0.00000000	      0.00000000	      0.00000000	      0.00000000	      0.00000000	      0.00000000	      0.00000000	     -0.00042092	      0.00000000	      0.00000000	      0.00000000	      0.00000000	      0.00000000	      0.00000000	      0.00000000	      0.00000000	      0.00000000	      0.00000000	      0.00000000	      0.00000000	      0.00000000	      0.00000000	      0.00000000	      0.00000000	      0.00000000	      0.00000000	      0.00000000	      0.00000000	      0.00000000
